<svg xmlns="http://www.w3.org/2000/svg" xmlns:xlink="http://www.w3.org/1999/xlink" viewBox="0 0 433.32 390"><defs><style>.cls-1{clip-path:url(#clip-path);}.cls-2{fill:none;}.cls-3{fill:#c4c4c4;}.cls-4{clip-path:url(#clip-path-2);}.cls-5{clip-path:url(#clip-path-3);}.cls-6{mask:url(#mask);}.cls-7{fill:#172b4d;}.cls-8{fill:#fff;}.cls-11,.cls-8{stroke:#36b37e;stroke-miterlimit:10;stroke-width:0.6px;}.cls-11,.cls-9{fill:#c5e9da;}.cls-10{fill:#36b37e;}</style><clipPath id="clip-path"><rect class="cls-2" x="0.45" width="374.1" height="390"/></clipPath><clipPath id="clip-path-2" transform="translate(-0.45)"><rect class="cls-2" width="375" height="390"/></clipPath><clipPath id="clip-path-3" transform="translate(-0.45)"><rect class="cls-2" x="0.45" width="374.1" height="390"/></clipPath><mask id="mask" x="0" y="-12.7" width="433.32" height="402.7" maskUnits="userSpaceOnUse"><g transform="translate(-0.45)"><g id="mask0"><g class="cls-1"><rect class="cls-3" x="314.15" y="-12.7" width="68" height="127"/></g></g></g></mask></defs><g id="Layer_2" data-name="Layer 2"><g id="Layer_1-2" data-name="Layer 1"><g class="cls-4"><rect class="cls-2" width="374.1" height="390"/><g class="cls-5"><g class="cls-6"><path class="cls-7" d="M386,93.4l44,15h-63.1l-8.1-.9-3.9-2.5,13.4-11.6Z" transform="translate(-0.45)"/><path class="cls-8" d="M380.15,65.9V63.5s-5.2-10.2-5.9-10.3-60.6-25-60.6-25l22.8,44.4,9,9.6Z" transform="translate(-0.45)"/><path class="cls-9" d="M355.25,54.4l-7.5.2-3.4-6.1-7.2.3,3.4,5.9-7.2.2,3.3,6,7.2-.1,7.5-.2,3.6,6.3h7.7l3.8,6.5h8.1l-4-6.6-3.9-6.5-7.8.2Z" transform="translate(-0.45)"/><path class="cls-10" d="M351.65,48.3l-3.5-6-7.3.4,3.4,5.9Z" transform="translate(-0.45)"/><path class="cls-10" d="M363,54.1l-3.7-6.2-7.6.3,3.6,6.1Z" transform="translate(-0.45)"/><path class="cls-10" d="M367,47.6l-3.8-6.1-7.6.4,3.6,6.1Z" transform="translate(-0.45)"/><path class="cls-10" d="M370.85,53.8,363,54l3.8,6.3,8-.1L383,60l-4.1-6.5-4-6.4-8,.3Z" transform="translate(-0.45)"/><path class="cls-7" d="M330.05,49.2l7-.3-3.3-5.9,7.1-.3-3.3-5.8-7,.4-6.8.4,3.1,5.7-6.8.3-6.6.3,3,5.7,6.7-.3,3.1,5.8,7-.2Z" transform="translate(-0.45)"/><path class="cls-10" d="M319.55,55.5l3.1,5.9,6.9-.1-3.2-5.9Z" transform="translate(-0.45)"/><path class="cls-10" d="M314.15,32.6l2.9,5.5,6.7-.4-3.1-5.6Z" transform="translate(-0.45)"/><path class="cls-10" d="M348.15,42.3l7.5-.4-3.6-5.9-3.5-5.8-7.2.5-7.1.5,3.3,5.7,7.2-.4Z" transform="translate(-0.45)"/><path class="cls-10" d="M367.15,34.9l-7.7.5,3.7,6L371,41Z" transform="translate(-0.45)"/><path class="cls-10" d="M383.05,46.9l-4-6.3-8,.4,3.9,6.2Z" transform="translate(-0.45)"/><path class="cls-10" d="M329.55,61.3l3.3,6.1,7.2-.1-3.4-6.1Z" transform="translate(-0.45)"/><path class="cls-7" d="M366.85,64.3l-27.5,5.9-.7,1.8,6.1,8.4Z" transform="translate(-0.45)"/><path class="cls-8" d="M390.35,71.9l-5.5-4.7-8.6-6.5-21.8,8.7-1,5.2,5.3,7.5Z" transform="translate(-0.45)"/><path class="cls-8" d="M379.15,75.4l16-5.2L386,93.4l-13.2.8Z" transform="translate(-0.45)"/><path class="cls-8" d="M362,81l-3.2,1.1-1.5,21,1.5,4.4,14-13.2,6.4-18.8Z" transform="translate(-0.45)"/><path class="cls-11" d="M404.85,67.1l27.7,15L362,81Z" transform="translate(-0.45)"/><path class="cls-8" d="M358.75,82.1V78.7l-22.2-30.6-2.9,4.7,21.2,52.3,2.5-2Z" transform="translate(-0.45)"/><path class="cls-8" d="M336.55,48.1l-2.9,4.7-9.9,9.2,7.8-15.8Z" transform="translate(-0.45)"/><path class="cls-7" d="M389.55,84.5,362,81l28.8.5Z" transform="translate(-0.45)"/><path class="cls-7" d="M365,80l-9.6-8-.4,1.4,3.8,5.2V82Z" transform="translate(-0.45)"/><path class="cls-11" d="M352.75,100l-2.3,2.8-2.9-2.8-15.4-45.9,1.4-1.3Z" transform="translate(-0.45)"/></g></g></g></g></g></svg>