<svg xmlns="http://www.w3.org/2000/svg" xmlns:xlink="http://www.w3.org/1999/xlink" viewBox="0 0 490.43 361.74"><defs><style>.cls-1,.cls-3{fill:#fff;}.cls-1,.cls-14,.cls-3,.cls-9{stroke:#36b37e;}.cls-1{stroke-linejoin:round;}.cls-1,.cls-9{stroke-width:0.63px;}.cls-2{fill:#c4c4c4;}.cls-14,.cls-3,.cls-9{stroke-miterlimit:10;}.cls-14,.cls-3{stroke-width:0.6px;}.cls-4{fill:none;}.cls-5{clip-path:url(#clip-path);}.cls-6{clip-path:url(#clip-path-2);}.cls-7{fill:#172b4d;}.cls-8{fill:#36b37e;}.cls-11,.cls-14,.cls-9{fill:#c5e9da;}.cls-10{mask:url(#mask);}.cls-12{mask:url(#mask-2);}.cls-13{mask:url(#mask-3);}</style><clipPath id="clip-path" transform="translate(57.06 -27.64)"><rect class="cls-4" width="374.11" height="390"/></clipPath><clipPath id="clip-path-2" transform="translate(57.06 -27.64)"><rect class="cls-4" x="-57" y="325" width="127.44" height="64.38"/></clipPath><mask id="mask" x="-0.09" y="313.8" width="72.75" height="47.94" maskUnits="userSpaceOnUse"><g transform="translate(57.06 -27.64)"><g id="mask0"><path class="cls-1" d="M-56.83,341.76l72,26.55L.94,373.22l-36,8.34Z"/></g></g></mask><mask id="mask-2" x="369.7" y="-40.33" width="120.73" height="127" maskUnits="userSpaceOnUse"><g transform="translate(57.06 -27.64)"><g id="mask0-2" data-name="mask0"><rect class="cls-2" x="313.74" y="-12.68" width="68" height="127"/></g></g></mask><mask id="mask-3" x="369.88" y="0.27" width="69.83" height="54.98" maskUnits="userSpaceOnUse"><g transform="translate(57.06 -27.64)"><g id="mask1"><path class="cls-3" d="M379.93,66.18V63.83s-5.15-10.21-5.88-10.31-60.59-25-60.59-25l22.81,44.4,9,9.62Z"/></g></g></mask></defs><g id="Layer_2" data-name="Layer 2"><g id="Layer_1-2" data-name="Layer 1"><g class="cls-5"><g class="cls-6"><path class="cls-7" d="M-35.2,382.25,65.53,381l-39-10.75,4.4-9.3,25-3.43L49.47,356l-17.19-.77Z" transform="translate(57.06 -27.64)"/><path class="cls-8" d="M20.51,334.72l-3.07,0-25.53-9.51,28.86,16.36,4.7-3.89Z" transform="translate(57.06 -27.64)"/><path class="cls-7" d="M20.51,334.71l49.68-9.1L45.38,349.7Z" transform="translate(57.06 -27.64)"/><path class="cls-1" d="M-8.09,325.26l49.58,28.17-11.16,2.05L3,357.47Z" transform="translate(57.06 -27.64)"/><path class="cls-1" d="M41.49,353.43l28.7-27.82L49.47,356Z" transform="translate(57.06 -27.64)"/><path class="cls-1" d="M20.77,341.62,33.61,331l1.33,1.08-4,15.29Z" transform="translate(57.06 -27.64)"/><path class="cls-1" d="M34.94,332.11l11.61,16.46-5.06,4.86-10.59-6Z" transform="translate(57.06 -27.64)"/><path class="cls-1" d="M49.47,356l-19.14-.51,11.16-2.05Z" transform="translate(57.06 -27.64)"/><path class="cls-9" d="M-16.63,348.11l64.26-22.5-28,37.08Z" transform="translate(57.06 -27.64)"/><path class="cls-1" d="M-56.74,341.57l72.08,26.85L.86,373.53l-36,8.33Z" transform="translate(57.06 -27.64)"/><path class="cls-1" d="M15.34,368.42l32.29-42.81L26.5,370.2Z" transform="translate(57.06 -27.64)"/><path class="cls-8" d="M-14.79,357.22.1,340.49l2,1.08L-.06,362.69Z" transform="translate(57.06 -27.64)"/><path class="cls-1" d="M2.09,341.57,21,361l-5.63,7.47-15.4-5.73Z" transform="translate(57.06 -27.64)"/><path class="cls-1" d="M26.5,370.2.86,373.53l14.48-5.11Z" transform="translate(57.06 -27.64)"/><g class="cls-10"><path class="cls-11" d="M-13.46,369.49l-7.83.25-3.63-6.29-7.52.31,3.53,6.24-7.42.2,3.43,6.3,7.57-.16,7.72-.2,3.79,6.59,8.08-.1,4,6.75H6.65l-4.1-6.85-4-6.7-8.19.15Z" transform="translate(57.06 -27.64)"/><path class="cls-8" d="M2.76,368.93l-8.24.3,4,6.6,8.34-.2,8.6-.21-4.25-6.75-4.14-6.6-8.29.36Z" transform="translate(57.06 -27.64)"/><path class="cls-8" d="M-1,349.24l-8,.51L-5.17,356,3,355.58Z" transform="translate(57.06 -27.64)"/><path class="cls-8" d="M15.6,361.67l-4.25-6.55L3,355.58l4,6.49Z" transform="translate(57.06 -27.64)"/></g></g><g class="cls-12"><path class="cls-7" d="M385.54,93.39l44,15H366.41l-8.1-.89L354.39,105l13.39-11.63Z" transform="translate(57.06 -27.64)"/><path class="cls-3" d="M379.75,65.92V63.56s-5.15-10.2-5.89-10.3-60.58-25-60.58-25l22.81,44.41,9,9.61Z" transform="translate(57.06 -27.64)"/><g class="cls-13"><path class="cls-11" d="M354.78,54.39l-7.51.24-3.43-6.08-7.21.34L340,54.83l-7.16.24,3.34,6L343.4,61l7.45-.2,3.63,6.29,7.71,0L366,73.47h8.1l-4-6.57-3.87-6.48-7.8.2Z" transform="translate(57.06 -27.64)"/><path class="cls-8" d="M351.2,48.25l-3.53-6-7.27.39,3.44,5.89Z" transform="translate(57.06 -27.64)"/><path class="cls-8" d="M362.48,54.09l-3.73-6.18-7.55.34,3.58,6.14Z" transform="translate(57.06 -27.64)"/><path class="cls-8" d="M366.5,47.57l-3.77-6.14-7.61.39,3.63,6.09Z" transform="translate(57.06 -27.64)"/><path class="cls-8" d="M370.38,53.85l-7.9.24,3.78,6.33,8-.15,8.25-.19-4.08-6.48-4-6.38-8,.35Z" transform="translate(57.06 -27.64)"/><path class="cls-7" d="M329.61,49.19l7-.3L333.34,43l7.06-.34-3.33-5.84-7,.44-6.82.44,3.14,5.7-6.77.34-6.57.34,3,5.69,6.67-.29,3.14,5.84,7-.25Z" transform="translate(57.06 -27.64)"/><path class="cls-8" d="M319.11,55.51l3.09,5.89,6.92-.15-3.24-5.93Z" transform="translate(57.06 -27.64)"/><path class="cls-8" d="M313.67,32.6l2.94,5.54,6.67-.44-3.09-5.59Z" transform="translate(57.06 -27.64)"/><path class="cls-8" d="M347.67,42.27l7.45-.44-3.58-5.94-3.48-5.84-7.21.54-7.07.54,3.29,5.69,7.16-.44Z" transform="translate(57.06 -27.64)"/><path class="cls-8" d="M366.75,34.91l-7.7.49,3.68,6,7.85-.39Z" transform="translate(57.06 -27.64)"/><path class="cls-8" d="M382.64,46.88l-4-6.28-8,.44,3.92,6.18Z" transform="translate(57.06 -27.64)"/><path class="cls-8" d="M329.12,61.25l3.29,6.09,7.16-.1-3.38-6.13Z" transform="translate(57.06 -27.64)"/></g><path class="cls-7" d="M366.41,64.35l-27.48,5.88-.68,1.82,6.13,8.39Z" transform="translate(57.06 -27.64)"/><path class="cls-3" d="M389.86,71.85l-5.55-4.71-8.58-6.52L354,69.35l-1,5.25,5.3,7.51Z" transform="translate(57.06 -27.64)"/><path class="cls-3" d="M378.72,75.43l16-5.2-9.22,23.16-13.25.84Z" transform="translate(57.06 -27.64)"/><path class="cls-3" d="M361.5,81l-3.19,1.13-1.47,21,1.47,4.41,14-13.24,6.43-18.8Z" transform="translate(57.06 -27.64)"/><path class="cls-14" d="M404.43,67.14l27.71,15L361.5,81Z" transform="translate(57.06 -27.64)"/><path class="cls-3" d="M358.31,82.11V78.67L336.09,48.11l-2.95,4.66L354.39,105l2.45-2Z" transform="translate(57.06 -27.64)"/><path class="cls-3" d="M336.09,48.1l-2.95,4.67L323.23,62l7.85-15.85Z" transform="translate(57.06 -27.64)"/><path class="cls-7" d="M389.07,84.46,361.5,81l28.8.49Z" transform="translate(57.06 -27.64)"/><path class="cls-7" d="M364.49,80.05l-9.61-8-.4,1.37,3.83,5.25v3.44Z" transform="translate(57.06 -27.64)"/><path class="cls-14" d="M352.33,100l-2.26,2.79L347.13,100,331.77,54.09l1.37-1.32Z" transform="translate(57.06 -27.64)"/></g></g></g></g></svg>