<svg xmlns="http://www.w3.org/2000/svg" xmlns:xlink="http://www.w3.org/1999/xlink" viewBox="0 0 3495.95 1287.58"><defs><style>.cls-1,.cls-17,.cls-2{fill:none;}.cls-2{stroke:#a5adba;stroke-linecap:round;stroke-width:1.47px;stroke-dasharray:1.49 1.49;}.cls-17,.cls-2,.cls-21,.cls-22,.cls-24,.cls-25{stroke-miterlimit:10;}.cls-3{clip-path:url(#clip-path);}.cls-10,.cls-16,.cls-21,.cls-24,.cls-4{fill:#c5e9da;}.cls-10,.cls-11,.cls-16,.cls-17,.cls-18,.cls-21,.cls-22,.cls-24,.cls-25,.cls-4,.cls-5{stroke:#36b37e;}.cls-10,.cls-11,.cls-16,.cls-4,.cls-5{stroke-linejoin:round;}.cls-4,.cls-5{stroke-width:3.38px;}.cls-11,.cls-18,.cls-22,.cls-25,.cls-5{fill:#fff;}.cls-6{fill:#36b37e;}.cls-7{fill:#172b4d;}.cls-8{opacity:0.88;}.cls-9{clip-path:url(#clip-path-2);}.cls-10,.cls-11{stroke-width:1.65px;}.cls-12{fill:#644df2;}.cls-13{opacity:0.32;}.cls-14{clip-path:url(#clip-path-3);}.cls-15{clip-path:url(#clip-path-4);}.cls-16,.cls-17,.cls-18{stroke-width:2.23px;}.cls-19{clip-path:url(#clip-path-5);}.cls-20{opacity:0.48;}.cls-21,.cls-22{stroke-width:0.42px;}.cls-23{clip-path:url(#clip-path-6);}.cls-24,.cls-25{stroke-width:1px;}</style><clipPath id="clip-path"><polygon class="cls-1" points="2692.08 475.09 3438.07 407.25 3670.43 691.16 2924.44 759 2692.08 475.09"/></clipPath><clipPath id="clip-path-2"><polygon class="cls-1" points="454.35 973.23 765.4 920.12 947.28 1038.5 636.24 1091.6 454.35 973.23"/></clipPath><clipPath id="clip-path-3"><polygon class="cls-1" points="742.64 273.96 895.15 267.28 912.69 311.81 760.18 318.49 742.64 273.96"/></clipPath><clipPath id="clip-path-4"><polygon class="cls-1" points="2435.74 107.95 2651.11 4.5 3113.75 111.52 2898.37 214.97 2435.74 107.95"/></clipPath><clipPath id="clip-path-5"><polygon class="cls-1" points="1467.29 964.83 1552.7 949.09 1611.94 984.82 1526.53 1000.55 1467.29 964.83"/></clipPath><clipPath id="clip-path-6"><polygon class="cls-1" points="2581.88 1229.88 2833.48 1181.46 2949.25 1248.3 2697.65 1296.72 2581.88 1229.88"/></clipPath></defs><g id="Layer_2" data-name="Layer 2"><g id="Layer_1-2" data-name="Layer 1"><g id="Layer_2-2" data-name="Layer 2"><g id="Layer_1-2-2" data-name="Layer 1-2"><path class="cls-2" d="M217.61,934.69,912.29,786.06"/><path class="cls-2" d="M10.58,734.89l789.87-51.65"/><path class="cls-2" d="M.74,520.71l790,51.66"/><path class="cls-2" d="M188.69,318.23,883.37,466.86"/><path class="cls-2" d="M552.14,151.81l516,227.82"/><path class="cls-2" d="M1047.68,41.67l274.08,279.24"/><path class="cls-2" d="M1643.78.74V298"/><path class="cls-2" d="M2184.68,34.36l-274,279.24"/><path class="cls-2" d="M2690.09,138.16,2174.84,365.74"/><path class="cls-2" d="M3068.66,299.71l-694,148.6"/><path class="cls-2" d="M3275.69,499.76l-789.24,51.41"/><path class="cls-2" d="M3286.19,713.69,2496.2,662"/><path class="cls-2" d="M3097.58,916.18l-694-148.64"/><path class="cls-2" d="M2734.13,1082.6,2218.85,854.78"/><path class="cls-2" d="M2239.22,1193l-274-279.48"/><path class="cls-2" d="M1643.78,1127.92V936.4"/><path class="cls-2" d="M1101.59,1200.31,1376.45,920.8"/><path class="cls-2" d="M596.84,1096.24l515.25-227.58"/><path class="cls-2" d="M217.61,934.69,912.29,786.06"/><path class="cls-2" d="M10.58,734.89l789.87-51.65"/><path class="cls-2" d="M.74,520.71l790,51.66"/><path class="cls-2" d="M188.69,318.23,883.37,466.86"/><path class="cls-2" d="M552.14,151.81l516,227.82"/><path class="cls-2" d="M1047.68,41.67l274.08,279.24"/><g class="cls-3"><path class="cls-4" d="M2753.66,546.68,3055.1,443l439.17,36.36L3191.09,583Z"/><path class="cls-5" d="M3006.44,637.09l-252.78-90.41L3191.09,583Z"/><path class="cls-4" d="M3305.9,723.31l-440-39.6,140.58-46.62Z"/><path class="cls-5" d="M2753.66,546.68l112.2,137,140.58-46.62Z"/><path class="cls-6" d="M3012.26,568.14,3309.89,464l-75.42-6.21L2938.07,562Z"/><path class="cls-6" d="M2938,562l58.59,71.56-129-46.14-27.51-33.63Z"/><path class="cls-7" d="M2840.24,553.8l45.6-14.72-88.62-7.51-43.56,15.11Z"/><path class="cls-7" d="M2979.77,547.45l42.48-15-96.6-8.14-43.71,14.93Z"/><path class="cls-7" d="M2925.65,524.31l45.6-14.72-88.59-7.51L2839,517Z"/><path class="cls-7" d="M2994.68,641.05l11.76-4-95.64,50.8-45-4.18Z"/></g><g class="cls-8"><g class="cls-9"><path class="cls-10" d="M900.11,1008.72l-104.43,55.21-204.39-2.49,105.24-55.25Z"/><path class="cls-11" d="M696.5,1006.19l-105.21,55.25-81-60.16,96.48-53.58Z"/><path class="cls-11" d="M696.5,1006.19l66.63-29.64L606.65,947.71Z"/><path class="cls-11" d="M763.13,976.55l137,32.17-203.61-2.53Z"/><path class="cls-10" d="M606.65,947.7l205.8,3.88-49.2,25Z"/><path class="cls-11" d="M900.11,1008.72l-87.66-57.14-49.2,25Z"/><path class="cls-12" d="M729.92,991.31l-20.19,8.91Z"/><path class="cls-6" d="M719.24,1006.45l-9.51-6.19-13.23,5.93Z"/><path class="cls-6" d="M719.24,1006.45l-102.63,55.28,35.1.41,102-55.28Z"/><path class="cls-6" d="M779.75,1007.23l-102.63,55.28,35.1.41,102-55.27Z"/><path class="cls-6" d="M779.75,1007.23l-35.31-23-14.52,7.08,23.85,15.52Z"/><path class="cls-6" d="M814.28,1007.64l-45.84-29.83,69.87,16.41,21.54,14Z"/><path class="cls-7" d="M859.85,1008.25l-16.08,7.92,41.28.58,15-8Z"/><path class="cls-7" d="M799.88,1015.38l-14.61,8,45,.61,15.18-8Z"/><path class="cls-7" d="M830.27,1023.93l-16.08,7.93,41.31.58,15-8Z"/><path class="cls-7" d="M767.21,974.44l-4.08,2.11,28.14-25.43,21,.46Z"/><path class="cls-7" d="M570,1021.48l-13.59-10.12,18.48-10.4L589,1011.07,651.59,977l-45-29.25c-6-3.87-96.6,53.5-96.6,53.5l41.13,30.46Z"/></g></g><g class="cls-13"><g class="cls-14"><path class="cls-10" d="M858.05,269.47l46.68,19.84-29.28,24.44-46.62-19.93Z"/><path class="cls-11" d="M828.89,293.82l46.56,19.92-76.14,2L753.38,297.1Z"/><path class="cls-11" d="M828.89,293.82l-23.7-11.92-51.75,15.23Z"/><path class="cls-11" d="M805.19,281.9l52.86-12.43-29.16,24.35Z"/><path class="cls-10" d="M753.44,297.13l30.9-24.43,20.85,9.2Z"/><path class="cls-11" d="M858.05,269.47l-73.71,3.23,20.85,9.2Z"/><path class="cls-12" d="M817,287.85l7.08,3.6Z"/><path class="cls-6" d="M832.13,291.1l-8,.35,4.77,2.37Z"/><path class="cls-6" d="M832.13,291.11l47,19.61,5-4.2L837.05,287Z"/><path class="cls-6" d="M840.83,283.87l47,19.61,5-4.2-47.07-19.54Z"/><path class="cls-6" d="M840.83,283.87l-29.64,1.3,5.85,2.68,20-.88Z"/><path class="cls-6" d="M845.75,279.74l-38.49,1.68,27-6.33,18-.8Z"/><path class="cls-7" d="M852.32,274.31l6.57,3,6-4.93-6.81-2.87Z"/><path class="cls-7" d="M852.32,282.49l6.78,2.8,6.51-5.38L858.89,277Z"/><path class="cls-7" d="M865.61,279.91l6.54,3,6-4.93-6.72-2.87Z"/><path class="cls-7" d="M803.45,281.13l1.77.77-24-6.71,3.24-2.49Z"/><path class="cls-6" d="M851.78,314.39l-9-3.68-17,.55,9,3.59Z"/><path class="cls-7" d="M829.16,311.14l-12.81.33-9-3.59,12.87-.4-29.13-12-37.71,1.66c-5,.22,45.81,18.65,45.81,18.65l38.58-1Z"/></g></g><g class="cls-15"><path class="cls-16" d="M2970.92,178.87l-278.4-12.31L2576.45,129,2591.87,34l37.8-18.17L2714,19.81l272,97.69Z"/><path class="cls-6" d="M2786.75,170.73l-6.3-27.29s-28.14,25.75-39.84,25.25S2786.75,170.73,2786.75,170.73Z"/><path class="cls-17" d="M2853.29,173.69l63.81-80.76"/><path class="cls-17" d="M2901,113.13l-4.8-27.82"/><path class="cls-18" d="M2590.4,54l113.79,24.64,28.17,11L2702.81,97,2588.45,65.89Z"/><path class="cls-17" d="M2779.19,156.57l.84-42.13"/><path class="cls-7" d="M2587.19,61.49l1.11-.54,33.9,6,55.71,17.46,27.54-6.27L2714,19.85l-84.33-3.93-37.8,18.16Z"/><path class="cls-7" d="M2620.19,67.86l-33-5.73L2576.45,129l116.25,37.59,10.08-68.8-14.61-7.94Z"/></g><g class="cls-19"><g class="cls-20"><path class="cls-21" d="M1511.63,958.45l82.89,16.86s12.3,3.23.75,10.17-25.53,5.26-25.53,5.26l-86.13-16.52s-10.2-3.13,0-9.56C1495.49,957.19,1511.63,958.45,1511.63,958.45Z"/><path class="cls-6" d="M1511.63,958.46s11.73,2.4-.81,10.3c-11.76,7.41-27.21,5.46-27.21,5.46s-9.9-3.41,0-9.56S1505.45,958.41,1511.63,958.46Z"/><path class="cls-7" d="M1588,974s-7.68,3.89-27.84,6.57c-21.42,2.86-33.6,1.91-33.6,1.91l17.28,3.32s9,.64,31.47-2.84c18.27-2.83,23.46-5.63,23.46-5.63l-4.29-2Z"/><path class="cls-6" d="M1558.55,968.08s-7.41,3.48-29.37,5.85a298.77,298.77,0,0,1-37,2l17.31,3.33a208.6,208.6,0,0,0,33.81-2.13,169,169,0,0,0,28.8-6.25l-10.62-2.17Z"/><path class="cls-7" d="M1510.82,968.76s23,.58,36.54-3l-14.82-3a101.61,101.61,0,0,1-16,.36A25.35,25.35,0,0,1,1510.82,968.76Z"/><path class="cls-22" d="M1502,965.73l-3,1.26,1,5.78a41.75,41.75,0,0,0,10.71-4l-3.54-2.85Z"/><path class="cls-22" d="M1515.2,960.22a5.4,5.4,0,0,0-3.63-1.78l-13.92,6.71s4.86.56,6,.78l3.51.66,8.55-1.85C1517.46,963.27,1517.28,961.63,1515.2,960.22Z"/><path class="cls-6" d="M1597.58,983.86a189.86,189.86,0,0,1-27.6,3.86c-14.1.87-15.39.13-15.39.13l15,2.89a50.42,50.42,0,0,0,14.58-.93A32.55,32.55,0,0,0,1597.58,983.86Z"/><path class="cls-22" d="M1503.74,966a8.26,8.26,0,0,0-2.4-2.9,12.65,12.65,0,0,1-1.59-1l-3,1.82,1,1.26Z"/><path class="cls-22" d="M1499.06,967l-4.29-.33-15.39,4.12s-.39.52,1.8,2.25l1.38.73,18.21-5.78S1501.25,967.16,1499.06,967Z"/><path class="cls-22" d="M1499.06,967s-5.61,3.36-5.61,3.3,8.76-1.87,8.76-1.87S1502,967,1499.06,967Z"/></g></g><g class="cls-23"><path class="cls-24" d="M2649.89,1261.86l116.28-66.3s22.38-9.85,72.3-1,38.58,20,38.58,20l-113.73,68.75s-21.84,8.21-68,.41C2641.61,1274.67,2649.89,1261.86,2649.89,1261.86Z"/><path class="cls-6" d="M2649.89,1261.86s16.56-9.39,73.38.17c53.22,9,40.05,21.26,40.05,21.26s-23.82,8-68,.41S2649.83,1266.68,2649.89,1261.86Z"/><path class="cls-7" d="M2756.84,1200.82s28,5.89,48,21.73c21.3,16.8,15,26.48,15,26.48l22.92-13.82s4.14-7.21-21.63-24.75a124.31,124.31,0,0,0-41.13-18.32l-14,3.49Z"/><path class="cls-6" d="M2716.25,1224.31s25.11,5.72,43,23,15.51,29.2,15.51,29.2l22.92-13.83s3.6-11.1-16.68-26.63c-10.8-8.41-26.34-16-45.78-22.5l-15,8.49Z"/><path class="cls-7" d="M2723.27,1262s3-18.22-23.37-28.75l-20.7,11.86c4.11,4.06,5.23,8.4,3.27,12.65C2682.47,1257.79,2708,1259.56,2723.27,1262Z"/><path class="cls-25" d="M2702.09,1269.11l9,2.25,41.1-1c-7.82-3.42-17.71-6.24-29-8.3l-20.13,2.94Z"/><path class="cls-25" d="M2662.25,1259s-9.93.84-12.51,2.94l48.39,10.71a52.23,52.23,0,0,1,5.28-4.82c1.53-1,4.53-2.81,4.53-2.81l-13.56-6.67A113.77,113.77,0,0,0,2662.25,1259Z"/><path class="cls-6" d="M2826.83,1192.76c13.61,6.54,23.32,13.88,28.62,21.65,6.81,11.11,1.65,12.17,1.65,12.17l19.89-12.1s4.89-5.15-7.29-11.49S2826.83,1192.76,2826.83,1192.76Z"/><path class="cls-25" d="M2703.56,1267.76s-15.39,1-20.55,2c-2.18.47-4.44.91-6.75,1.31l13.08,2.35,9-.85Z"/><path class="cls-25" d="M2711.27,1271.41l-2.1,3.41,30,12s3.72.29,16-1.54l5.07-1.11-42-14.16S2712.29,1269.68,2711.27,1271.41Z"/><path class="cls-25" d="M2711.27,1271.41s24.18,4.36,23.7,4.19-13.68-6.85-13.68-6.85S2711,1269.06,2711.27,1271.41Z"/></g></g></g></g></g></svg>